<svg width="16px" height="16px" viewBox="0 0 16 16" version="1.1" xmlns="http://www.w3.org/2000/svg" xmlns:xlink="http://www.w3.org/1999/xlink">
    <g stroke="none" stroke-width="1" fill="none" fill-rule="evenodd">
        <g transform="translate(-876.000000, -254.000000)" fill="#979797" fill-rule="nonzero">
            <g transform="translate(877.000000, 255.000000)">
                <g id="Star-Icon">
                    <path d="M13.0491681,5.4982289 L8.80130318,4.8660086 L8.66406007,4.57705726 L6.91859191,0.902149881 L5.06034529,4.87819607 L4.74445951,4.92738671 L0.809784655,5.54008632 L3.89615813,8.67292655 L3.84792382,8.97286305 L3.18929062,13.0683612 L6.94552826,10.9839198 L7.23556942,11.1426132 L10.710562,13.0440256 L9.97789377,8.65290158 L10.1897703,8.43524677 L13.0491681,5.4982289 Z M9.61076274,3.77326461 L13.6178571,4.36965044 L13.6267998,4.37105042 C13.9979878,4.43203237 14.2999629,4.69803473 14.4123775,5.05860224 C14.525103,5.42016661 14.4288824,5.81709919 14.1671048,6.06979505 L11.2612846,9.05486303 L11.9445854,13.1720308 C11.9694807,13.2589434 11.9791594,13.3420658 11.9791594,13.4296013 C11.9791594,13.9753737 11.543388,14.4317743 10.9951645,14.4317743 C10.836859,14.4317743 10.681842,14.3926525 10.5308163,14.3134522 L6.94961446,12.3540308 L3.38720269,14.3308316 C3.23945618,14.415939 3.07657935,14.4585859 2.90851738,14.4585859 C2.69508394,14.4585859 2.48642276,14.3871011 2.32439383,14.2615682 C2.02331466,14.0363309 1.87594974,13.6597385 1.93782248,13.2926294 L2.61491237,9.08226575 L-0.304128382,6.1192189 C-0.569759152,5.85605138 -0.665894362,5.46152577 -0.5542061,5.10328814 C-0.441791449,4.74272063 -0.139816342,4.47671827 0.236319802,4.4149446 L4.24393162,3.79086774 L6.02852286,-0.0275797809 C6.1909698,-0.375251312 6.53431388,-0.6 6.91628588,-0.6 C7.29576184,-0.6 7.63821937,-0.377966576 7.80243193,-0.0339911722 L9.61076274,3.77326461 Z"></path>
                </g>
            </g>
        </g>
    </g>
</svg>