<?xml version="1.0" encoding="utf-8"?>
<!-- Generator: Adobe Illustrator 25.0.1, SVG Export Plug-In . SVG Version: 6.00 Build 0)  -->
<svg version="1.1" id="Layer_1" xmlns="http://www.w3.org/2000/svg" xmlns:xlink="http://www.w3.org/1999/xlink" x="0px" y="0px"
	 viewBox="0 0 397.1 134.7" style="enable-background:new 0 0 397.1 134.7;" xml:space="preserve">
<style type="text/css">
	.st0{fill:#231F20;}
	.st1{fill:#FF671D;}
	.st2{fill:#FFFFFF;}
</style>
<polygon class="st0" points="290.3,134.7 279.7,134.7 287.6,115.5 266,62.3 276.9,62.3 292.9,104.4 309.3,62.3 320.2,62.3 
	290.3,134.7 "/>
<path class="st0" d="M349.3,117.9c-16,0-29.3-12.8-29.3-28.9s13.6-28.2,29.3-28.2c15.9,0,29.3,12.3,29.3,28.4
	C378.5,104.7,365.7,117.9,349.3,117.9z M349.3,70.1c-10.6-0.1-19.3,8.5-19.4,19.1s8.5,19.3,19.1,19.4c10.6,0.1,19.3-8.5,19.4-19.1
	c0-0.1,0-0.2,0-0.3C368.3,78.7,359.8,70.1,349.3,70.1z"/>
<polygon class="st0" points="386.9,116.6 386.9,44 397.1,44 397.1,116.6 386.9,116.6 "/>
<path class="st1" d="M291.6,49.9c-0.5,0-0.9-0.3-1-0.8l-2.7-17.1c-0.9-5.6,0-10.2,2.9-14s7.1-6,12.5-6.9L374.2,0
	c0.5,0,0.9,0.3,1,0.8l5.4,34.2c0,0.5-0.3,0.9-0.8,1L291.6,49.9z"/>
<path class="st2" d="M315.4,31.9c-0.6,2.1-2.3,3.7-4.5,4c-2.9,0.5-6.1-1.2-6.8-5.4c-0.6-3.7,1.4-6.7,4.8-7.2
	c2.2-0.4,4.4,0.6,5.5,2.5l3.4-0.5c-2.3-4.4-7.8-6.1-12.2-3.7c-3.5,1.8-5.3,5.7-4.6,9.6c0.6,4.9,5.1,8.3,9.9,7.7c0.1,0,0.3,0,0.4-0.1
	c3.8-0.6,6.8-3.6,7.5-7.4L315.4,31.9L315.4,31.9z"/>
<path class="st2" d="M328.6,17.2c-5.1,0.7-8.6,5.4-7.8,10.5c0.7,5.2,5.4,8.8,10.5,8.2s8.8-5.4,8.2-10.5c-0.7-5.2-5.4-8.8-10.5-8.2
	C328.8,17.2,328.7,17.2,328.6,17.2z M331.1,32.6c-3.5,0.6-6.8-1.7-7.4-5.2s1.7-6.8,5.2-7.4c3.5-0.6,6.8,1.7,7.4,5.2
	C336.9,28.7,334.6,32,331.1,32.6C331.1,32.6,331.1,32.6,331.1,32.6z"/>
<path class="st2" d="M369.7,28.7L368,18.3c-0.8-4.6-3.8-6.9-8.2-6.1c-2.7,0.4-4.3,1.6-5.2,3.8l-0.1,0.2l-0.1-0.1
	c-1.2-1.8-3.9-2.3-5.8-2c-2,0.2-3.7,1.4-4.5,3.1l0,0h-0.2l-0.4-1.8l-2.8,0.5l2.8,17.2l3.1-0.5l-1.6-9.6c-0.6-3.6,0.6-5.5,3.5-6
	c1.3-0.3,2.7,0.1,3.6,1.1c0.8,1,1.3,2.2,1.4,3.5l1.6,9.6l3.1-0.5l-1.6-9.7c-0.4-2.5-0.4-5.4,3.4-6c2.8-0.5,4.5,1.1,5.1,4.6l1.6,9.6
	L369.7,28.7L369.7,28.7z"/>
<path class="st2" d="M300.5,38.8c0,1.4-1.1,2.5-2.5,2.5c-1.4,0-2.5-1.1-2.5-2.5c0-1.4,1.1-2.5,2.5-2.5c0,0,0,0,0,0
	C299.3,36.4,300.5,37.5,300.5,38.8C300.5,38.8,300.5,38.8,300.5,38.8z"/>
<g>
	<path d="M45.9,106.4l1.7,8c-4.7,2.2-10.3,3.3-16.7,3.3c-8.6,0-15.5-2.6-20.8-7.9S2.2,97.9,2.2,89.4c0-8.8,2.8-15.9,8.5-21.5
		c5.7-5.5,13.2-8.3,22.4-8.3c5.6,0,10.5,1,14.7,3.1l-2.3,8.2c-3.5-1.8-7.6-2.8-12.3-2.8c-6.1,0-11,1.9-14.6,5.8
		c-3.7,3.9-5.5,8.8-5.5,14.8c0,6.2,1.9,11.2,5.6,14.9c3.7,3.7,8.5,5.5,14.2,5.5C37.4,109.2,41.7,108.3,45.9,106.4z"/>
	<path d="M60,116.6V34.7h10.7v81.9H60z"/>
	<path d="M140.4,88.2c0,6-1.2,11.2-3.7,15.7c-2.5,4.5-6,7.9-10.5,10.3s-9.3,3.6-14.5,3.6c-8.1,0-14.8-2.7-20.1-8
		c-5.3-5.3-7.9-12.2-7.9-20.7c0-9,2.7-16.2,8.2-21.5c5.5-5.3,12.4-8,20.7-8c8.3,0,15,2.7,20.2,8S140.4,79.8,140.4,88.2z M94.5,88.8
		c0,6.1,1.6,11.1,4.9,15.1c3.3,4,7.3,6,12.2,6c5,0,9.2-2,12.6-6c3.4-4,5-9.1,5-15.4c0-5.8-1.5-10.7-4.6-14.8
		c-3.1-4.1-7.3-6.1-12.6-6.1c-5.4,0-9.7,2-12.8,6.1C96,77.7,94.5,82.8,94.5,88.8z"/>
	<path d="M153.4,116.6V76.2c0-6.2-0.2-11.3-0.5-15.3h9.4l0.9,9.4c1.8-3.2,4.4-5.8,7.8-7.8c3.4-2,7.1-2.9,11.2-2.9
		c5.8,0,10.7,2.1,14.5,6.2c3.9,4.1,5.8,10.1,5.8,18.1v32.7h-10.7V85c0-5.3-1.1-9.3-3.4-12.2c-2.3-2.9-5.5-4.3-9.8-4.3
		c-3.8,0-7.2,1.4-10.2,4.3c-3,2.9-4.4,6.4-4.4,10.5v33.2H153.4z"/>
	<path d="M265.8,90.9h-40.4c0.2,6,2,10.6,5.6,13.8c3.6,3.2,8.2,4.8,13.9,4.8c6.2,0,11.6-1,16.2-2.9l1.8,7.5
		c-5.5,2.5-12,3.7-19.4,3.7c-8.7,0-15.6-2.6-20.7-7.7c-5.1-5.1-7.7-12-7.7-20.5s2.5-15.6,7.4-21.4s11.5-8.6,19.9-8.6
		c7.7,0,13.5,2.6,17.7,7.7c4.1,5.1,6.2,11.4,6.2,18.8C266.2,88.2,266,89.8,265.8,90.9z M225.6,83.2h30.2c0-4.8-1.2-8.7-3.7-11.6
		s-6-4.4-10.6-4.4c-4.3,0-7.9,1.5-10.8,4.4C228,74.6,226.2,78.4,225.6,83.2z"/>
</g>
</svg>
